<svg width="332" height="45" viewBox="0 0 332 45" fill="none" xmlns="http://www.w3.org/2000/svg">
<path d="M26.656 16.152C26.656 18.104 26.208 19.896 25.312 21.528C24.416 23.128 23.04 24.424 21.184 25.416C19.328 26.408 17.024 26.904 14.272 26.904H9.184V39H0.976V5.304H14.272C16.96 5.304 19.232 5.768 21.088 6.696C22.944 7.624 24.336 8.904 25.264 10.536C26.192 12.168 26.656 14.04 26.656 16.152ZM13.648 20.376C15.216 20.376 16.384 20.008 17.152 19.272C17.92 18.536 18.304 17.496 18.304 16.152C18.304 14.808 17.92 13.768 17.152 13.032C16.384 12.296 15.216 11.928 13.648 11.928H9.184V20.376H13.648ZM56.1771 25.176C56.1771 25.944 56.1291 26.744 56.0331 27.576H37.4571C37.5851 29.24 38.1131 30.52 39.0411 31.416C40.0011 32.28 41.1691 32.712 42.5451 32.712C44.5931 32.712 46.0171 31.848 46.8171 30.12H55.5531C55.1051 31.88 54.2891 33.464 53.1051 34.872C51.9531 36.28 50.4971 37.384 48.7371 38.184C46.9771 38.984 45.0091 39.384 42.8331 39.384C40.2091 39.384 37.8731 38.824 35.8251 37.704C33.7771 36.584 32.1771 34.984 31.0251 32.904C29.8731 30.824 29.2971 28.392 29.2971 25.608C29.2971 22.824 29.8571 20.392 30.9771 18.312C32.1291 16.232 33.7291 14.632 35.7771 13.512C37.8251 12.392 40.1771 11.832 42.8331 11.832C45.4251 11.832 47.7291 12.376 49.7451 13.464C51.7611 14.552 53.3291 16.104 54.4491 18.12C55.6011 20.136 56.1771 22.488 56.1771 25.176ZM47.7771 23.016C47.7771 21.608 47.2971 20.488 46.3371 19.656C45.3771 18.824 44.1771 18.408 42.7371 18.408C41.3611 18.408 40.1931 18.808 39.2331 19.608C38.3051 20.408 37.7291 21.544 37.5051 23.016H47.7771ZM58.8753 25.56C58.8753 22.808 59.3873 20.392 60.4113 18.312C61.4673 16.232 62.8913 14.632 64.6833 13.512C66.4753 12.392 68.4753 11.832 70.6833 11.832C72.4433 11.832 74.0433 12.2 75.4833 12.936C76.9553 13.672 78.1073 14.664 78.9393 15.912V3.48H87.1473V39H78.9393V35.16C78.1713 36.44 77.0673 37.464 75.6273 38.232C74.2193 39 72.5713 39.384 70.6833 39.384C68.4753 39.384 66.4753 38.824 64.6833 37.704C62.8913 36.552 61.4673 34.936 60.4113 32.856C59.3873 30.744 58.8753 28.312 58.8753 25.56ZM78.9393 25.608C78.9393 23.56 78.3633 21.944 77.2113 20.76C76.0913 19.576 74.7153 18.984 73.0833 18.984C71.4513 18.984 70.0593 19.576 68.9073 20.76C67.7873 21.912 67.2273 23.512 67.2273 25.56C67.2273 27.608 67.7873 29.24 68.9073 30.456C70.0593 31.64 71.4513 32.232 73.0833 32.232C74.7153 32.232 76.0913 31.64 77.2113 30.456C78.3633 29.272 78.9393 27.656 78.9393 25.608ZM101.293 16.68C102.253 15.208 103.453 14.056 104.893 13.224C106.333 12.36 107.933 11.928 109.693 11.928V20.616H107.437C105.389 20.616 103.853 21.064 102.829 21.96C101.805 22.824 101.293 24.36 101.293 26.568V39H93.0854V12.216H101.293V16.68ZM125.809 39.384C123.185 39.384 120.817 38.824 118.705 37.704C116.625 36.584 114.977 34.984 113.761 32.904C112.577 30.824 111.985 28.392 111.985 25.608C111.985 22.856 112.593 20.44 113.809 18.36C115.025 16.248 116.689 14.632 118.801 13.512C120.913 12.392 123.281 11.832 125.905 11.832C128.529 11.832 130.897 12.392 133.009 13.512C135.121 14.632 136.785 16.248 138.001 18.36C139.217 20.44 139.825 22.856 139.825 25.608C139.825 28.36 139.201 30.792 137.953 32.904C136.737 34.984 135.057 36.584 132.913 37.704C130.801 38.824 128.433 39.384 125.809 39.384ZM125.809 32.28C127.377 32.28 128.705 31.704 129.793 30.552C130.913 29.4 131.473 27.752 131.473 25.608C131.473 23.464 130.929 21.816 129.841 20.664C128.785 19.512 127.473 18.936 125.905 18.936C124.305 18.936 122.977 19.512 121.921 20.664C120.865 21.784 120.337 23.432 120.337 25.608C120.337 27.752 120.849 29.4 121.873 30.552C122.929 31.704 124.241 32.28 125.809 32.28ZM178.351 44.76L174.031 38.952C172.751 39.208 171.503 39.336 170.287 39.336C167.119 39.336 164.207 38.6 161.551 37.128C158.927 35.656 156.831 33.608 155.263 30.984C153.727 28.328 152.959 25.352 152.959 22.056C152.959 18.76 153.727 15.8 155.263 13.176C156.831 10.552 158.927 8.504 161.551 7.032C164.207 5.56 167.119 4.824 170.287 4.824C173.455 4.824 176.351 5.56 178.975 7.032C181.631 8.504 183.711 10.552 185.215 13.176C186.751 15.8 187.519 18.76 187.519 22.056C187.519 24.936 186.927 27.576 185.743 29.976C184.591 32.344 182.975 34.312 180.895 35.88L188.287 44.76H178.351ZM161.359 22.056C161.359 25.032 162.159 27.416 163.759 29.208C165.391 30.968 167.567 31.848 170.287 31.848C172.975 31.848 175.119 30.952 176.719 29.16C178.351 27.368 179.167 25 179.167 22.056C179.167 19.08 178.351 16.712 176.719 14.952C175.119 13.16 172.975 12.264 170.287 12.264C167.567 12.264 165.391 13.144 163.759 14.904C162.159 16.664 161.359 19.048 161.359 22.056ZM218.627 12.216V39H210.419V35.352C209.587 36.536 208.451 37.496 207.011 38.232C205.603 38.936 204.035 39.288 202.307 39.288C200.259 39.288 198.451 38.84 196.883 37.944C195.315 37.016 194.099 35.688 193.235 33.96C192.371 32.232 191.939 30.2 191.939 27.864V12.216H200.099V26.76C200.099 28.552 200.563 29.944 201.491 30.936C202.419 31.928 203.667 32.424 205.235 32.424C206.835 32.424 208.099 31.928 209.027 30.936C209.955 29.944 210.419 28.552 210.419 26.76V12.216H218.627ZM228.651 9.432C227.211 9.432 226.027 9.016 225.099 8.184C224.203 7.32 223.755 6.264 223.755 5.016C223.755 3.736 224.203 2.68 225.099 1.848C226.027 0.983997 227.211 0.551997 228.651 0.551997C230.059 0.551997 231.211 0.983997 232.107 1.848C233.035 2.68 233.499 3.736 233.499 5.016C233.499 6.264 233.035 7.32 232.107 8.184C231.211 9.016 230.059 9.432 228.651 9.432ZM232.731 12.216V39H224.523V12.216H232.731ZM246.887 16.68C247.847 15.208 249.047 14.056 250.487 13.224C251.927 12.36 253.527 11.928 255.287 11.928V20.616H253.031C250.983 20.616 249.447 21.064 248.423 21.96C247.399 22.824 246.887 24.36 246.887 26.568V39H238.679V12.216H246.887V16.68ZM263.338 9.432C261.898 9.432 260.714 9.016 259.786 8.184C258.89 7.32 258.442 6.264 258.442 5.016C258.442 3.736 258.89 2.68 259.786 1.848C260.714 0.983997 261.898 0.551997 263.338 0.551997C264.746 0.551997 265.898 0.983997 266.794 1.848C267.722 2.68 268.186 3.736 268.186 5.016C268.186 6.264 267.722 7.32 266.794 8.184C265.898 9.016 264.746 9.432 263.338 9.432ZM267.418 12.216V39H259.21V12.216H267.418ZM289.687 11.928C292.823 11.928 295.319 12.952 297.175 15C299.063 17.016 300.007 19.8 300.007 23.352V39H291.847V24.456C291.847 22.664 291.383 21.272 290.455 20.28C289.527 19.288 288.279 18.792 286.711 18.792C285.143 18.792 283.895 19.288 282.967 20.28C282.039 21.272 281.575 22.664 281.575 24.456V39H273.367V12.216H281.575V15.768C282.407 14.584 283.527 13.656 284.935 12.984C286.343 12.28 287.927 11.928 289.687 11.928ZM317.902 39.384C315.278 39.384 312.91 38.824 310.798 37.704C308.718 36.584 307.07 34.984 305.854 32.904C304.67 30.824 304.078 28.392 304.078 25.608C304.078 22.856 304.686 20.44 305.902 18.36C307.118 16.248 308.782 14.632 310.894 13.512C313.006 12.392 315.374 11.832 317.998 11.832C320.622 11.832 322.99 12.392 325.102 13.512C327.214 14.632 328.878 16.248 330.094 18.36C331.31 20.44 331.918 22.856 331.918 25.608C331.918 28.36 331.294 30.792 330.046 32.904C328.83 34.984 327.15 36.584 325.006 37.704C322.894 38.824 320.526 39.384 317.902 39.384ZM317.902 32.28C319.47 32.28 320.798 31.704 321.886 30.552C323.006 29.4 323.566 27.752 323.566 25.608C323.566 23.464 323.022 21.816 321.934 20.664C320.878 19.512 319.566 18.936 317.998 18.936C316.398 18.936 315.07 19.512 314.014 20.664C312.958 21.784 312.43 23.432 312.43 25.608C312.43 27.752 312.942 29.4 313.966 30.552C315.022 31.704 316.334 32.28 317.902 32.28Z" fill="#141414"/>
</svg>
